<svg width="31" height="27" viewBox="0 0 31 27" fill="none" xmlns="http://www.w3.org/2000/svg">
<path d="M18.292 23.1056H14.441C14.1857 23.1056 13.9408 23.207 13.7603 23.3876C13.5797 23.5681 13.4783 23.813 13.4783 24.0683V25.9938C13.4783 26.2491 13.5797 26.494 13.7603 26.6746C13.9408 26.8551 14.1857 26.9565 14.441 26.9565H18.292C18.5473 26.9565 18.7922 26.8551 18.9727 26.6746C19.1533 26.494 19.2547 26.2491 19.2547 25.9938V24.0683C19.2547 23.813 19.1533 23.5681 18.9727 23.3876C18.7922 23.207 18.5473 23.1056 18.292 23.1056ZM10.5901 19.2547H7.70191V0.962733C7.70191 0.707401 7.60048 0.462526 7.41993 0.281978C7.23939 0.10143 6.99451 0 6.73918 0H4.81371C4.55838 0 4.3135 0.10143 4.13296 0.281978C3.95241 0.462526 3.85098 0.707401 3.85098 0.962733V19.2547H0.96278C0.108956 19.2547 -0.323071 20.292 0.283451 20.8979L5.09712 26.6743C5.27765 26.8547 5.52243 26.9561 5.77765 26.9561C6.03287 26.9561 6.27765 26.8547 6.45818 26.6743L11.2718 20.8979C11.8748 20.2932 11.4457 19.2547 10.5901 19.2547ZM25.9938 7.70187H14.441C14.1857 7.70187 13.9408 7.8033 13.7603 7.98384C13.5797 8.16439 13.4783 8.40927 13.4783 8.6646V10.5901C13.4783 10.8454 13.5797 11.0903 13.7603 11.2708C13.9408 11.4514 14.1857 11.5528 14.441 11.5528H25.9938C26.2492 11.5528 26.4941 11.4514 26.6746 11.2708C26.8551 11.0903 26.9566 10.8454 26.9566 10.5901V8.6646C26.9566 8.40927 26.8551 8.16439 26.6746 7.98384C26.4941 7.8033 26.2492 7.70187 25.9938 7.70187ZM22.1429 15.4037H14.441C14.1857 15.4037 13.9408 15.5052 13.7603 15.6857C13.5797 15.8663 13.4783 16.1111 13.4783 16.3665V18.2919C13.4783 18.5473 13.5797 18.7921 13.7603 18.9727C13.9408 19.1532 14.1857 19.2547 14.441 19.2547H22.1429C22.3982 19.2547 22.6431 19.1532 22.8237 18.9727C23.0042 18.7921 23.1056 18.5473 23.1056 18.2919V16.3665C23.1056 16.1111 23.0042 15.8663 22.8237 15.6857C22.6431 15.5052 22.3982 15.4037 22.1429 15.4037ZM29.8448 0H14.441C14.1857 0 13.9408 0.10143 13.7603 0.281978C13.5797 0.462526 13.4783 0.707401 13.4783 0.962733V2.8882C13.4783 3.14353 13.5797 3.38841 13.7603 3.56895C13.9408 3.7495 14.1857 3.85093 14.441 3.85093H29.8448C30.1001 3.85093 30.345 3.7495 30.5255 3.56895C30.7061 3.38841 30.8075 3.14353 30.8075 2.8882V0.962733C30.8075 0.707401 30.7061 0.462526 30.5255 0.281978C30.345 0.10143 30.1001 0 29.8448 0Z" fill="#2F2F2F"/>
</svg>
