<svg width="45" height="45" viewBox="0 0 45 45" fill="none" xmlns="http://www.w3.org/2000/svg">
<g clip-path="url(#clip0_1_15)">
<path d="M39.375 9.375C37.2938 8.71875 35.0062 8.4375 32.8125 8.4375C29.1562 8.4375 25.2188 9.1875 22.5 11.25C19.7812 9.1875 15.8438 8.4375 12.1875 8.4375C8.53125 8.4375 4.59375 9.1875 1.875 11.25L1.875 38.7188C1.875 39.1875 2.34375 39.6563 2.8125 39.6563C3 39.6563 3.09375 39.5625 3.28125 39.5625C5.8125 38.3438 9.46875 37.5 12.1875 37.5C15.8438 37.5 19.7813 38.25 22.5 40.3125C25.0313 38.7188 29.625 37.5 32.8125 37.5C35.9063 37.5 39.0938 38.0625 41.7188 39.4688C41.9063 39.5625 42 39.5625 42.1875 39.5625C42.6563 39.5625 43.125 39.0938 43.125 38.625L43.125 11.25C42 10.4063 40.7812 9.84375 39.375 9.375ZM39.375 34.6875C37.3125 34.0313 35.0625 33.75 32.8125 33.75C29.625 33.75 25.0313 34.9688 22.5 36.5625L22.5 15C25.0312 13.4063 29.625 12.1875 32.8125 12.1875C35.0625 12.1875 37.3125 12.4688 39.375 13.125L39.375 34.6875Z" fill="#B4BCCF"/>
<path d="M32.8125 19.6875C34.4625 19.6875 36.0562 19.8563 37.5 20.175V17.325C36.0188 17.0437 34.425 16.875 32.8125 16.875C29.625 16.875 26.7375 17.4187 24.375 18.4312V21.5437C26.4938 20.3437 29.4375 19.6875 32.8125 19.6875Z" fill="white"/>
<path d="M24.375 23.4187V26.5312C26.4938 25.3312 29.4375 24.675 32.8125 24.675C34.4625 24.675 36.0562 24.8437 37.5 25.1625V22.3125C36.0188 22.0312 34.425 21.8625 32.8125 21.8625C29.625 21.8625 26.7375 22.425 24.375 23.4187Z" fill="white"/>
<path d="M32.8125 26.8687C29.625 26.8687 26.7375 27.4125 24.375 28.425V31.5375C26.4938 30.3375 29.4375 29.6812 32.8125 29.6812C34.4625 29.6812 36.0562 29.85 37.5 30.1687V27.3187C36.0188 27.0187 34.425 26.8687 32.8125 26.8687Z" fill="white"/>
</g>
<defs>
<clipPath id="clip0_1_15">
<rect width="45" height="45" fill="white"/>
</clipPath>
</defs>
</svg>
